<svg width="254" height="196" viewBox="0 0 254 196" fill="none" xmlns="http://www.w3.org/2000/svg">
<g opacity="0.3" clip-path="url(#clip0_2343_32744)">
<path d="M247.953 154.889H217.077V195.479H247.953V154.889Z" fill="#F5F5F5"/>
<path d="M248.011 154.889H233.532V195.479H248.011V154.889Z" fill="#EBEBEB"/>
<path d="M226.38 160.39H223.589V167.107H226.38V160.39Z" fill="#EBEBEB"/>
<path d="M226.38 186.736H223.589V193.452H226.38V186.736Z" fill="#EBEBEB"/>
<path d="M233.533 169.77C233.533 169.828 229.869 169.886 225.334 169.886C220.799 169.886 217.135 169.828 217.135 169.77C217.135 169.712 220.799 169.654 225.334 169.654C229.811 169.654 233.533 169.712 233.533 169.77Z" fill="#EBEBEB"/>
<path d="M226.38 173.649H223.589V180.366H226.38V173.649Z" fill="#EBEBEB"/>
<path d="M233.533 183.03C233.533 183.088 229.869 183.145 225.334 183.145C220.799 183.145 217.135 183.088 217.135 183.03C217.135 182.972 220.799 182.914 225.334 182.914C229.811 182.914 233.533 182.972 233.533 183.03Z" fill="#EBEBEB"/>
<path d="M239.347 160.39H236.556V167.107H239.347V160.39Z" fill="#E0E0E0"/>
<path d="M245.395 160.39H242.604V167.107H245.395V160.39Z" fill="#E0E0E0"/>
<path d="M239.347 173.187H236.556V179.903H239.347V173.187Z" fill="#E0E0E0"/>
<path d="M245.395 173.187H242.604V179.903H245.395V173.187Z" fill="#E0E0E0"/>
<path d="M239.347 185.925H236.556V192.642H239.347V185.925Z" fill="#E0E0E0"/>
<path d="M245.395 185.925H242.604V192.642H245.395V185.925Z" fill="#E0E0E0"/>
<path d="M250.279 153.5H214.751V154.947H250.279V153.5Z" fill="#E0E0E0"/>
<path d="M248.186 155.121C248.186 155.179 241.266 155.236 232.777 155.236C224.229 155.236 217.368 155.179 217.368 155.121C217.368 155.063 224.287 155.005 232.777 155.005C241.324 155.005 248.186 155.063 248.186 155.121Z" fill="#F5F5F5"/>
<path d="M182.828 52.4019H127.705V196H182.828V52.4019Z" fill="#EBEBEB"/>
<path d="M182.77 52.4019H155.208V196H182.77V52.4019Z" fill="#E0E0E0"/>
<path d="M153.464 35.3206H133.984V52.4018H153.464V35.3206Z" fill="#EBEBEB"/>
<path d="M153.464 35.3206H148.812V52.4018H153.464V35.3206Z" fill="#E0E0E0"/>
<path d="M184.398 51.3596H123.111V52.344H184.398V51.3596Z" fill="#E0E0E0"/>
<path d="M143.23 59.8135H138.578V69.599H143.23V59.8135Z" fill="white"/>
<path d="M155.208 73.4784C155.208 73.5942 149.045 73.6521 141.427 73.6521C133.81 73.6521 127.646 73.5942 127.646 73.4784C127.646 73.3626 133.81 73.3047 141.427 73.3047C149.045 73.2468 155.208 73.3626 155.208 73.4784Z" fill="#E0E0E0"/>
<path d="M171.024 59.8135H166.372V69.599H171.024V59.8135Z" fill="#F5F5F5"/>
<path d="M183.002 73.4784C183.002 73.5942 176.839 73.6521 169.221 73.6521C161.604 73.6521 155.44 73.5942 155.44 73.4784C155.44 73.3626 161.604 73.3047 169.221 73.3047C176.839 73.2468 183.002 73.3626 183.002 73.4784Z" fill="#EBEBEB"/>
<path d="M171.024 79.2686H166.372V89.0541H171.024V79.2686Z" fill="#F5F5F5"/>
<path d="M183.002 92.8756C183.002 92.9914 176.839 93.0493 169.221 93.0493C161.604 93.0493 155.44 92.9914 155.44 92.8756C155.44 92.7598 161.604 92.7019 169.221 92.7019C176.839 92.7019 183.002 92.8177 183.002 92.8756Z" fill="#EBEBEB"/>
<path d="M171.024 99.303H166.372V109.088H171.024V99.303Z" fill="#F5F5F5"/>
<path d="M183.002 112.91C183.002 113.026 176.839 113.084 169.221 113.084C161.604 113.084 155.44 113.026 155.44 112.91C155.44 112.794 161.604 112.736 169.221 112.736C176.839 112.736 183.002 112.852 183.002 112.91Z" fill="#EBEBEB"/>
<path d="M171.024 119.337H166.372V129.123H171.024V119.337Z" fill="#F5F5F5"/>
<path d="M183.002 132.944C183.002 133.06 176.839 133.118 169.221 133.118C161.604 133.118 155.44 133.06 155.44 132.944C155.44 132.828 161.604 132.771 169.221 132.771C176.839 132.771 183.002 132.828 183.002 132.944Z" fill="#EBEBEB"/>
<path d="M171.024 138.792H166.372V148.578H171.024V138.792Z" fill="#F5F5F5"/>
<path d="M183.002 152.399C183.002 152.515 176.839 152.573 169.221 152.573C161.604 152.573 155.44 152.515 155.44 152.399C155.44 152.283 161.604 152.225 169.221 152.225C176.839 152.225 183.002 152.283 183.002 152.399Z" fill="#EBEBEB"/>
<path d="M171.024 158.305H166.372V168.091H171.024V158.305Z" fill="#F5F5F5"/>
<path d="M171.024 178.108H166.372V187.894H171.024V178.108Z" fill="#F5F5F5"/>
<path d="M183.002 171.97C183.002 172.086 176.839 172.144 169.221 172.144C161.604 172.144 155.44 172.086 155.44 171.97C155.44 171.855 161.604 171.797 169.221 171.797C176.839 171.739 183.002 171.855 183.002 171.97Z" fill="#EBEBEB"/>
<path d="M143.23 79.5581H138.578V89.3436H143.23V79.5581Z" fill="white"/>
<path d="M155.208 93.223C155.208 93.3389 149.045 93.3968 141.427 93.3968C133.81 93.3968 127.646 93.3389 127.646 93.223C127.646 93.1072 133.81 93.0493 141.427 93.0493C149.045 92.9914 155.208 93.1072 155.208 93.223Z" fill="#E0E0E0"/>
<path d="M143.23 99.303H138.578V109.088H143.23V99.303Z" fill="white"/>
<path d="M155.208 112.91C155.208 113.026 149.045 113.084 141.427 113.084C133.81 113.084 127.646 113.026 127.646 112.91C127.646 112.794 133.81 112.736 141.427 112.736C149.045 112.736 155.208 112.852 155.208 112.91Z" fill="#E0E0E0"/>
<path d="M143.23 119.048H138.578V128.833H143.23V119.048Z" fill="white"/>
<path d="M155.208 132.655C155.208 132.77 149.045 132.828 141.427 132.828C133.81 132.828 127.646 132.77 127.646 132.655C127.646 132.539 133.81 132.481 141.427 132.481C149.045 132.481 155.208 132.597 155.208 132.655Z" fill="#E0E0E0"/>
<path d="M143.23 138.792H138.578V148.578H143.23V138.792Z" fill="white"/>
<path d="M155.208 152.4C155.208 152.515 149.045 152.573 141.427 152.573C133.81 152.573 127.646 152.515 127.646 152.4C127.646 152.284 133.81 152.226 141.427 152.226C149.045 152.226 155.208 152.284 155.208 152.4Z" fill="#E0E0E0"/>
<path d="M143.23 158.537H138.578V168.323H143.23V158.537Z" fill="white"/>
<path d="M155.208 172.144C155.208 172.26 149.045 172.318 141.427 172.318C133.81 172.318 127.646 172.26 127.646 172.144C127.646 172.028 133.81 171.97 141.427 171.97C149.045 171.97 155.208 172.028 155.208 172.144Z" fill="#E0E0E0"/>
<path d="M143.23 178.282H138.578V188.067H143.23V178.282Z" fill="white"/>
<path d="M106.016 140.24H63.7432V195.71H106.016V140.24Z" fill="#EBEBEB"/>
<path d="M106.016 140.24H86.188V195.71H106.016V140.24Z" fill="#E0E0E0"/>
<path d="M76.4192 147.767H72.6396V156.974H76.4192V147.767Z" fill="#F5F5F5"/>
<path d="M76.4192 183.725H72.6396V192.931H76.4192V183.725Z" fill="#F5F5F5"/>
<path d="M86.1879 160.564C86.1879 160.68 81.1872 160.738 74.9655 160.738C68.7438 160.738 63.7432 160.68 63.7432 160.564C63.7432 160.448 68.7438 160.39 74.9655 160.39C81.1872 160.39 86.1879 160.448 86.1879 160.564Z" fill="#F5F5F5"/>
<path d="M76.4192 165.891H72.6396V175.097H76.4192V165.891Z" fill="#F5F5F5"/>
<path d="M86.1879 178.687C86.1879 178.803 81.1872 178.861 74.9655 178.861C68.7438 178.861 63.7432 178.803 63.7432 178.687C63.7432 178.571 68.7438 178.513 74.9655 178.513C81.1872 178.513 86.1879 178.571 86.1879 178.687Z" fill="#F5F5F5"/>
<path d="M94.1541 147.767H90.3745V156.974H94.1541V147.767Z" fill="#F5F5F5"/>
<path d="M102.411 147.767H98.6313V156.974H102.411V147.767Z" fill="#F5F5F5"/>
<path d="M94.1541 165.196H90.3745V174.402H94.1541V165.196Z" fill="#F5F5F5"/>
<path d="M102.411 165.196H98.6313V174.402H102.411V165.196Z" fill="#F5F5F5"/>
<path d="M94.1541 182.625H90.3745V191.831H94.1541V182.625Z" fill="#F5F5F5"/>
<path d="M102.411 182.625H98.6313V191.831H102.411V182.625Z" fill="#F5F5F5"/>
<path d="M109.214 138.329H60.603V140.356H109.214V138.329Z" fill="#E0E0E0"/>
<path d="M106.307 140.529C106.307 140.645 96.8867 140.703 85.1992 140.703C73.5698 140.703 64.0918 140.645 64.0918 140.529C64.0918 140.413 73.5116 140.355 85.1992 140.355C96.8285 140.298 106.307 140.413 106.307 140.529Z" fill="#EBEBEB"/>
<path d="M196.027 71.4517L233.474 71.6254C233.474 71.6254 229.927 63.519 222.368 63.519C216.611 63.519 216.321 67.109 212.89 68.0933C209.459 69.0777 202.075 62.8821 196.027 71.4517Z" fill="#EBEBEB"/>
<path d="M34.437 31.7306L100.259 32.0201C100.259 32.0201 94.0377 17.834 80.722 17.834C70.5463 17.834 70.1392 24.1454 64.0338 25.9403C57.9284 27.6774 45.0779 16.6759 34.437 31.7306Z" fill="#F5F5F5"/>
<path d="M166.431 10.4804L216.03 10.712C216.03 10.712 211.32 0 201.319 0C193.643 0 193.353 4.74801 188.759 6.07976C184.165 7.46942 174.455 -0.868538 166.431 10.4804Z" fill="#FAFAFA"/>
<path d="M254 195.537C254 195.595 192.888 195.71 117.471 195.71C42.1125 195.653 -19 195.595 -19 195.537C-19 195.479 42.1125 195.363 117.529 195.363C192.888 195.363 254 195.421 254 195.537Z" fill="#263238"/>
<path d="M226.089 111.462H193.876V195.421H226.089V111.462Z" fill="#455A64"/>
<path d="M226.09 111.462H209.983V195.421H226.09V111.462Z" fill="#263238"/>
<path d="M208.936 101.503H197.539V111.462H208.936V101.503Z" fill="#455A64"/>
<path d="M208.936 101.503H206.203V111.462H208.936V101.503Z" fill="#263238"/>
<path d="M226.962 110.883H191.143V111.462H226.962V110.883Z" fill="#455A64"/>
<path d="M202.947 115.805H200.214V121.537H202.947V115.805Z" fill="#263238"/>
<path d="M209.983 123.795C209.983 123.853 206.378 123.911 201.9 123.911C197.423 123.911 193.818 123.853 193.818 123.795C193.818 123.738 197.423 123.68 201.9 123.68C206.378 123.68 209.983 123.738 209.983 123.795Z" fill="#263238"/>
<path d="M219.17 115.805H216.437V121.537H219.17V115.805Z" fill="#455A64"/>
<path d="M226.206 123.795C226.206 123.853 222.601 123.911 218.123 123.911C213.646 123.911 210.041 123.853 210.041 123.795C210.041 123.737 213.646 123.679 218.123 123.679C222.601 123.679 226.206 123.737 226.206 123.795Z" fill="#455A64"/>
<path d="M219.17 127.212H216.437V132.944H219.17V127.212Z" fill="#455A64"/>
<path d="M226.206 135.144C226.206 135.202 222.601 135.26 218.123 135.26C213.646 135.26 210.041 135.202 210.041 135.144C210.041 135.086 213.646 135.029 218.123 135.029C222.601 135.086 226.206 135.086 226.206 135.144Z" fill="#455A64"/>
<path d="M219.17 138.908H216.437V144.64H219.17V138.908Z" fill="#455A64"/>
<path d="M226.206 146.899C226.206 146.956 222.601 147.014 218.123 147.014C213.646 147.014 210.041 146.956 210.041 146.899C210.041 146.841 213.646 146.783 218.123 146.783C222.601 146.783 226.206 146.841 226.206 146.899Z" fill="#455A64"/>
<path d="M219.17 150.604H216.437V156.337H219.17V150.604Z" fill="#455A64"/>
<path d="M226.206 158.595C226.206 158.653 222.601 158.711 218.123 158.711C213.646 158.711 210.041 158.653 210.041 158.595C210.041 158.537 213.646 158.479 218.123 158.479C222.601 158.479 226.206 158.537 226.206 158.595Z" fill="#455A64"/>
<path d="M219.17 162.011H216.437V167.743H219.17V162.011Z" fill="#455A64"/>
<path d="M226.206 170.002C226.206 170.059 222.601 170.117 218.123 170.117C213.646 170.117 210.041 170.059 210.041 170.002C210.041 169.944 213.646 169.886 218.123 169.886C222.601 169.886 226.206 169.886 226.206 170.002Z" fill="#455A64"/>
<path d="M219.17 173.418H216.437V179.15H219.17V173.418Z" fill="#455A64"/>
<path d="M219.17 184.999H216.437V190.731H219.17V184.999Z" fill="#455A64"/>
<path d="M226.206 181.409C226.206 181.466 222.601 181.524 218.123 181.524C213.646 181.524 210.041 181.466 210.041 181.409C210.041 181.351 213.646 181.293 218.123 181.293C222.601 181.293 226.206 181.351 226.206 181.409Z" fill="#455A64"/>
<path d="M202.947 127.385H200.214V133.118H202.947V127.385Z" fill="#263238"/>
<path d="M209.983 135.318C209.983 135.376 206.378 135.434 201.9 135.434C197.423 135.434 193.818 135.376 193.818 135.318C193.818 135.26 197.423 135.202 201.9 135.202C206.378 135.26 209.983 135.26 209.983 135.318Z" fill="#263238"/>
<path d="M202.947 138.908H200.214V144.64H202.947V138.908Z" fill="#263238"/>
<path d="M209.983 146.899C209.983 146.956 206.378 147.014 201.9 147.014C197.423 147.014 193.818 146.956 193.818 146.899C193.818 146.841 197.423 146.783 201.9 146.783C206.378 146.783 209.983 146.841 209.983 146.899Z" fill="#263238"/>
<path d="M202.947 150.431H200.214V156.163H202.947V150.431Z" fill="#263238"/>
<path d="M209.983 158.421C209.983 158.479 206.378 158.537 201.9 158.537C197.423 158.537 193.818 158.479 193.818 158.421C193.818 158.363 197.423 158.305 201.9 158.305C206.378 158.305 209.983 158.363 209.983 158.421Z" fill="#263238"/>
<path d="M202.947 162.011H200.214V167.743H202.947V162.011Z" fill="#263238"/>
<path d="M209.983 170.002C209.983 170.059 206.378 170.117 201.9 170.117C197.423 170.117 193.818 170.059 193.818 170.002C193.818 169.944 197.423 169.886 201.9 169.886C206.378 169.886 209.983 169.886 209.983 170.002Z" fill="#263238"/>
<path d="M202.947 173.534H200.214V179.266H202.947V173.534Z" fill="#263238"/>
<path d="M209.983 181.524C209.983 181.582 206.378 181.64 201.9 181.64C197.423 181.64 193.818 181.582 193.818 181.524C193.818 181.466 197.423 181.408 201.9 181.408C206.378 181.408 209.983 181.466 209.983 181.524Z" fill="#263238"/>
<path d="M202.947 185.056H200.214V190.789H202.947V185.056Z" fill="#263238"/>
<path d="M145.382 81.469H102.295V195.479H145.382V81.469Z" fill="#455A64"/>
<path d="M145.381 81.469H128.868V195.479H145.381V81.469Z" fill="#263238"/>
<path d="M138.753 90.4436H135.497V97.334H138.753V90.4436Z" fill="#455A64"/>
<path d="M138.753 102.545H135.497V109.436H138.753V102.545Z" fill="#455A64"/>
<path d="M138.753 116.037H135.497V122.927H138.753V116.037Z" fill="#455A64"/>
<path d="M138.753 128.949H135.497V135.839H138.753V128.949Z" fill="#455A64"/>
<path d="M138.753 141.861H135.497V148.752H138.753V141.861Z" fill="#455A64"/>
<path d="M138.753 154.773H135.497V161.664H138.753V154.773Z" fill="#455A64"/>
<path d="M138.753 167.686H135.497V174.576H138.753V167.686Z" fill="#455A64"/>
<path d="M138.753 181.93H135.497V188.82H138.753V181.93Z" fill="#455A64"/>
<path d="M147.533 80.7742H98.5151V82.1059H147.533V80.7742Z" fill="#263238"/>
<path d="M137.125 72.7256H119.681V81.411H137.125V72.7256Z" fill="#263238"/>
<path d="M128.868 72.7256H119.681V80.774H128.868V72.7256Z" fill="#455A64"/>
<path d="M111.657 90.1543H108.4V97.0447H111.657V90.1543Z" fill="#263238"/>
<path d="M120.379 90.1543H117.123V97.0447H120.379V90.1543Z" fill="#263238"/>
<path d="M111.657 103.298H108.4V110.188H111.657V103.298Z" fill="#263238"/>
<path d="M120.379 103.298H117.123V110.188H120.379V103.298Z" fill="#263238"/>
<path d="M111.657 116.384H108.4V123.275H111.657V116.384Z" fill="#263238"/>
<path d="M120.379 116.384H117.123V123.275H120.379V116.384Z" fill="#263238"/>
<path d="M111.657 129.47H108.4V136.361H111.657V129.47Z" fill="#263238"/>
<path d="M120.379 129.47H117.123V136.361H120.379V129.47Z" fill="#263238"/>
<path d="M111.657 142.614H108.4V149.504H111.657V142.614Z" fill="#263238"/>
<path d="M120.379 142.614H117.123V149.504H120.379V142.614Z" fill="#263238"/>
<path d="M111.657 155.7H108.4V162.59H111.657V155.7Z" fill="#263238"/>
<path d="M120.379 155.7H117.123V162.59H120.379V155.7Z" fill="#263238"/>
<path d="M111.657 168.786H108.4V175.676H111.657V168.786Z" fill="#263238"/>
<path d="M120.379 168.786H117.123V175.676H120.379V168.786Z" fill="#263238"/>
<path d="M111.657 181.93H108.4V188.82H111.657V181.93Z" fill="#263238"/>
<path d="M120.379 181.93H117.123V188.82H120.379V181.93Z" fill="#263238"/>
<path d="M128.868 99.766C128.868 99.8818 122.937 99.9977 115.611 99.9977C108.284 99.9977 102.353 99.8818 102.353 99.766C102.353 99.6502 108.284 99.5344 115.611 99.5344C122.879 99.5344 128.868 99.6502 128.868 99.766Z" fill="#263238"/>
<path d="M128.868 112.91C128.868 113.026 122.937 113.142 115.611 113.142C108.284 113.142 102.353 113.026 102.353 112.91C102.353 112.794 108.284 112.678 115.611 112.678C122.879 112.678 128.868 112.794 128.868 112.91Z" fill="#263238"/>
<path d="M128.868 126.228C128.868 126.343 122.937 126.459 115.611 126.459C108.284 126.459 102.353 126.343 102.353 126.228C102.353 126.112 108.284 125.996 115.611 125.996C122.879 125.996 128.868 126.112 128.868 126.228Z" fill="#263238"/>
<path d="M128.868 139.429C128.868 139.545 122.937 139.661 115.611 139.661C108.284 139.661 102.353 139.545 102.353 139.429C102.353 139.314 108.284 139.198 115.611 139.198C122.879 139.256 128.868 139.314 128.868 139.429Z" fill="#263238"/>
<path d="M128.868 152.457C128.868 152.573 122.937 152.689 115.611 152.689C108.284 152.689 102.353 152.573 102.353 152.457C102.353 152.342 108.284 152.226 115.611 152.226C122.879 152.226 128.868 152.342 128.868 152.457Z" fill="#263238"/>
<path d="M128.868 165.138C128.868 165.254 122.937 165.37 115.611 165.37C108.284 165.37 102.353 165.254 102.353 165.138C102.353 165.022 108.284 164.906 115.611 164.906C122.879 164.906 128.868 165.022 128.868 165.138Z" fill="#263238"/>
<path d="M128.868 179.15C128.868 179.266 122.937 179.382 115.611 179.382C108.284 179.382 102.353 179.266 102.353 179.15C102.353 179.035 108.284 178.919 115.611 178.919C122.879 178.977 128.868 179.035 128.868 179.15Z" fill="#263238"/>
<path d="M145.207 99.766C145.207 99.8818 141.66 99.9977 137.299 99.9977C132.938 99.9977 129.391 99.8818 129.391 99.766C129.391 99.6502 132.938 99.5344 137.299 99.5344C141.66 99.5344 145.207 99.6502 145.207 99.766Z" fill="#455A64"/>
<path d="M145.207 112.91C145.207 113.026 141.66 113.141 137.299 113.141C132.938 113.141 129.391 113.026 129.391 112.91C129.391 112.794 132.938 112.678 137.299 112.678C141.66 112.678 145.207 112.794 145.207 112.91Z" fill="#455A64"/>
<path d="M145.207 126.054C145.207 126.17 141.66 126.285 137.299 126.285C132.938 126.285 129.391 126.17 129.391 126.054C129.391 125.938 132.938 125.822 137.299 125.822C141.66 125.88 145.207 125.938 145.207 126.054Z" fill="#455A64"/>
<path d="M145.033 139.429C145.033 139.545 141.486 139.661 137.125 139.661C132.764 139.661 129.217 139.545 129.217 139.429C129.217 139.313 132.764 139.198 137.125 139.198C141.486 139.255 145.033 139.313 145.033 139.429Z" fill="#455A64"/>
<path d="M145.033 152.457C145.033 152.573 141.486 152.689 137.125 152.689C132.764 152.689 129.217 152.573 129.217 152.457C129.217 152.342 132.764 152.226 137.125 152.226C141.486 152.226 145.033 152.342 145.033 152.457Z" fill="#455A64"/>
<path d="M145.033 165.486C145.033 165.601 141.486 165.717 137.125 165.717C132.764 165.717 129.217 165.601 129.217 165.486C129.217 165.37 132.764 165.254 137.125 165.254C141.486 165.254 145.033 165.37 145.033 165.486Z" fill="#455A64"/>
<path d="M145.033 179.15C145.033 179.266 141.486 179.382 137.125 179.382C132.764 179.382 129.217 179.266 129.217 179.15C129.217 179.035 132.764 178.919 137.125 178.919C141.486 178.977 145.033 179.035 145.033 179.15Z" fill="#455A64"/>
<path d="M168.582 186.967C168.524 186.967 168.582 186.736 168.291 186.562C168.175 186.504 168 186.446 167.826 186.504C167.652 186.562 167.535 186.736 167.535 186.967C167.535 187.199 167.652 187.373 167.826 187.43C168 187.488 168.175 187.43 168.291 187.373C168.582 187.199 168.582 186.967 168.582 186.967C168.582 186.967 168.698 187.199 168.407 187.488C168.291 187.604 168.059 187.662 167.826 187.604C167.593 187.546 167.361 187.257 167.361 186.967C167.361 186.678 167.593 186.446 167.826 186.33C168.059 186.272 168.291 186.33 168.407 186.446C168.698 186.736 168.64 187.025 168.582 186.967Z" fill="#263238"/>
</g>
<defs>
<clipPath id="clip0_2343_32744">
<rect width="273" height="196" fill="white" transform="translate(-19)"/>
</clipPath>
</defs>
</svg>
